<?xml version="1.0" encoding="UTF-8" standalone="no"?><svg xmlns="http://www.w3.org/2000/svg" viewBox="0 0 480 386"> <path d="M478 312v-5c0-26-20-47-45-47-5 0-10 1-14 3a74 74 0 0 0-65-39c-32 0-60 22-70 51-8-48-49-85-99-85-43 0-80 28-94 66a63 63 0 0 0-90 56h477z" fill="#e8eff4" /> <path d="M237 114c-5 6-13 6-18 0s-12-6-17 0h-1c-4 6-12 6-17 0s-13-6-18 0-13 6-17 0h-1c-5-6-12-6-17 0h-1c-4 6-12 6-17 0s-13-6-17 0M83 274v-90c0-16 14-29 30-29h32c16 0 29 13 29 29v93m-91-14h91" fill="none" stroke="#d5e8f4" stroke-linecap="round" stroke-miterlimit="10" stroke-width="2" /> <circle cx="196" cy="251" fill="none" r="20" stroke="#d5e8f4" stroke-linecap="round" stroke-miterlimit="10" stroke-width="2" /> <path d="M174 295v-44h2c0 10 9 19 20 19 3 0 5 0 8-2v38c0 3-2 5-6 5h63V74h52v237h5V74h43v237h108V99h-67v64h61v-52" fill="none" stroke="#d5e8f4" stroke-linecap="round" stroke-miterlimit="10" stroke-width="2" /> <circle cx="62" cy="251" fill="none" r="20" stroke="#d5e8f4" stroke-linecap="round" stroke-miterlimit="10" stroke-width="2" /> <path d="M83 287v-36h-2c1 11-8 19-19 19-3 0-6 0-9-2v38c1 3 3 6 6 6H20V104h54v30H36v-20h60" fill="none" stroke="#d5e8f4" stroke-linecap="round" stroke-miterlimit="10" stroke-width="2" /> <path d="M129 179c-3 0-4 2-4 4s1 4 4 4 4-2 4-4-2-4-4-4zm0 36l-3 1a4 4 0 0 0 3 7l3-2a4 4 0 0 0-3-6zM112 197l-3 1a4 4 0 0 0 3 7l3-2a4 4 0 0 0-3-6zM146 197l-3 1a4 4 0 0 0 3 7l3-2a4 4 0 0 0-3-6z" fill="#d5e8f4" /> <path d="M270 84h35v149h-35z" fill="none" stroke="#d5e8f4" stroke-linecap="round" stroke-miterlimit="10" stroke-width="2" /> <path d="M270 244h35v58h-35z" fill="none" stroke="#d5e8f4" stroke-linecap="round" stroke-miterlimit="10" /> <path d="M324 84h31v149h-31zm0 160h31v58h-31z" fill="none" stroke="#d5e8f4" stroke-linecap="round" stroke-miterlimit="10" stroke-width="2" /> <path d="M282 124c20 3 41 11 55 25l13-12a118 118 0 0 0-79-36c-28-3-40-11-40-11-4-1-7-2-11-1l-7 4s-3 7-10 13c-13 9-25 13-36 11-11-3-29-10-46-40l-16 9c17 29 35 47 57 52a58 58 0 0 0 34-4c-2 27 0 60 4 80v1l93-22v-1c-5-20-16-46-30-69l19 1z" fill="#a3c665" /> <circle cx="228" cy="99" fill="#719961" r="1" /> <circle cx="228" cy="135" fill="#719961" r="1" /> <circle cx="228" cy="117" fill="#719961" r="1" /> <circle cx="228" cy="153" fill="#719961" r="1" /> <circle cx="228" cy="189" fill="#719961" r="1" /> <circle cx="228" cy="171" fill="#719961" r="1" /> <circle cx="301" cy="126" fill="#719961" r="1" /> <circle cx="234" cy="180" fill="#719961" r="1" /> <circle cx="295" cy="117" fill="#719961" r="1" /> <circle cx="234" cy="144" fill="#719961" r="1" /> <circle cx="234" cy="126" fill="#719961" r="1" /> <circle cx="234" cy="162" fill="#719961" r="1" /> <circle cx="234" cy="198" fill="#719961" r="1" /> <circle cx="288" cy="108" fill="#719961" r="1" /> <circle cx="221" cy="108" fill="#719961" r="1" /> <circle cx="214" cy="117" fill="#719961" r="1" /> <circle cx="214" cy="153" fill="#719961" r="1" /> <circle cx="321" cy="135" fill="#719961" r="1" /> <circle cx="214" cy="135" fill="#719961" r="1" /> <circle cx="234" cy="108" fill="#719961" r="1" /> <circle cx="221" cy="126" fill="#719961" r="1" /> <circle cx="214" cy="171" fill="#719961" r="1" /> <circle cx="214" cy="189" fill="#719961" r="1" /> <circle cx="328" cy="126" fill="#719961" r="1" /> <circle cx="308" cy="117" fill="#719961" r="1" /> <circle cx="221" cy="144" fill="#719961" r="1" /> <circle cx="221" cy="162" fill="#719961" r="1" /> <circle cx="214" cy="207" fill="#719961" r="1" /> <circle cx="221" cy="198" fill="#719961" r="1" /> <circle cx="221" cy="180" fill="#719961" r="1" /> <circle cx="214" cy="99" fill="#719961" r="1" /> <circle cx="315" cy="126" fill="#719961" r="1" /> <circle cx="268" cy="171" fill="#719961" r="1" /> <circle cx="254" cy="171" fill="#719961" r="1" /> <circle cx="254" cy="153" fill="#719961" r="1" /> <circle cx="254" cy="135" fill="#719961" r="1" /> <circle cx="274" cy="180" fill="#719961" r="1" /> <circle cx="254" cy="117" fill="#719961" r="1" /> <circle cx="254" cy="189" fill="#719961" r="1" /> <circle cx="268" cy="153" fill="#719961" r="1" /> <circle cx="261" cy="162" fill="#719961" r="1" /> <circle cx="281" cy="117" fill="#719961" r="1" /> <circle cx="261" cy="144" fill="#719961" r="1" /> <circle cx="248" cy="108" fill="#719961" r="1" /> <circle cx="261" cy="180" fill="#719961" r="1" /> <circle cx="268" cy="189" fill="#719961" r="1" /> <circle cx="261" cy="198" fill="#719961" r="1" /> <circle cx="268" cy="117" fill="#719961" r="1" /> <circle cx="261" cy="108" fill="#719961" r="1" /> <circle cx="241" cy="153" fill="#719961" r="1" /> <circle cx="241" cy="135" fill="#719961" r="1" /> <circle cx="241" cy="117" fill="#719961" r="1" /> <circle cx="248" cy="126" fill="#719961" r="1" /> <circle cx="241" cy="189" fill="#719961" r="1" /> <circle cx="274" cy="108" fill="#719961" r="1" /> <circle cx="241" cy="99" fill="#719961" r="1" /> <circle cx="241" cy="171" fill="#719961" r="1" /> <circle cx="274" cy="162" fill="#719961" r="1" /> <circle cx="248" cy="162" fill="#719961" r="1" /> <circle cx="248" cy="144" fill="#719961" r="1" /> <circle cx="248" cy="180" fill="#719961" r="1" /> <circle cx="281" cy="171" fill="#719961" r="1" /> <circle cx="281" cy="189" fill="#719961" r="1" /> <circle cx="248" cy="198" fill="#719961" r="1" /> <circle cx="261" cy="126" fill="#719961" r="1" /> <path d="M348 136l-1-1 1 1z" fill="#719961" /> <circle cx="187" cy="135" fill="#719961" r="1" /> <circle cx="201" cy="189" fill="#719961" r="1" /> <circle cx="154" cy="126" fill="#719961" r="1" /> <circle cx="335" cy="135" fill="#719961" r="1" /> <circle cx="114" cy="90" fill="#719961" r="1" /> <circle cx="127" cy="90" fill="#719961" r="1" /> <circle cx="301" cy="108" fill="#719961" r="1" /> <path d="M321 116l-1 1 1 1 1-1v-1h-1z" fill="#719961" /> <circle cx="201" cy="171" fill="#719961" r="1" /> <path d="M138 127v-1l2-2 2 2-2 2c7 5 15 8 22 10a58 58 0 0 0 35-4l-1 9v2a417 417 0 0 0 0 35v1c1 9 1 18 3 26l2-2 2 2-2 2-2-1 1 6 1 1 26-6-1-2 2-2 2 2-1 1 11-2 1-1h1l31-7 2-2 1 1 17-4v-1l-3-11-2 1c-1 0-2 0-2-2s1-2 2-2l1 1a255 255 0 0 0-15-33l-2-2 1-2-3-6-2 1-2-2 2-2-5-9v-1a92 92 0 0 1 23 2l2-1 2 2a102 102 0 0 1 47 23l3-3-1-2 2-2 2 1 7-6h-2l-2-2v-1c-7-6-14-12-23-17 0 1 0 2-2 2l-2-2 1-2-17-7c0 2 0 2-2 2s-2 0-2-2l1-1a99 99 0 0 0-29-5l-14-3-2 2c-2 0-2-1-2-2l-18-6h-1l-1-1-2-2-9-1 1 2-2 2-2-2v-1c-2 0-4 2-6 4 0 0-3 6-10 12-5 4-10 7-16 9 2 0 2 1 2 2l-2 2c-2 0-2-1-2-2l1-1-10 2-2 1-2-1-5-1-5-1 1 1-2 2-2-2 1-2c-9-3-20-10-31-25v1l-2 2-2-2 2-2h1l-7-11-15 9c9 17 20 31 32 40zm197 6l2 2-2 2-2-2 2-2zm-7-9l2 2-2 2-2-2 2-2zm-7 9l2 2-2 2-2-2 2-2zm-6-9l2 2-2 2-2-2 2-2zm-7-9l2 2-2 2-2-2 2-2zm-7 9l2 2-2 2-2-2 2-2zm-6-9l2 2-2 2-2-2 2-2zm-7-9l2 2-2 2-2-2 2-2zm-7 9l2 2-2 2-2-2 2-2zm-7-9l2 2-2 2-2-2 2-2zm7 63l2 2-2 2-2-2 2-2zm0 18l2 2-2 2-2-2 2-2zm-7-27l2 2-2 2-2-2 2-2zm0 18l2 2-2 2-2-2 2-2zm-6-27c1 0 2 0 2 2s-1 2-2 2l-2-2 2-2zm0 18l2 2-2 2-2-2 2-2zm0 18l2 2-2 2-2-2 2-2zm0-72l2 2-2 2-2-2 2-2zm-7-9l2 2-2 2-2-2 2-2zm0 18l2 2-2 2-2-2 2-2zm0 18l2 2-2 2-2-2 2-2zm0 18l2 2-2 2-2-2 2-2zm0 18l2 2-2 2-2-2 2-2zm0 18l2 2-2 2-2-2 2-2zm-7-81l2 2-2 2-2-2 2-2zm0 18l2 2-2 2-2-2 2-2zm0 18c1 0 2 0 2 2s-1 2-2 2l-2-2 2-2zm0 18l2 2-2 2-2-2 2-2zm0 18l2 2-2 2-2-2 2-2zm-6-81l2 2-2 2-2-2 2-2zm0 18l2 2-2 2-2-2 2-2zm0 18l2 2-2 2-2-2 2-2zm0 18l2 2-2 2-2-2 2-2zm0 18l2 2-2 2-2-2 2-2zm0 18l2 2-2 2-2-2 2-2zm-7-99l2 2-2 2-2-2 2-2zm0 18l2 2-2 2-2-2 2-2zm0 18l2 2-2 2-2-2 2-2zm0 18c1 0 2 0 2 2s-1 2-2 2l-2-2 2-2zm0 18l2 2-2 2-2-2 2-2zm0 18l2 2-2 2-2-2 2-2zm-7-81l2 2-2 2-2-2 2-2zm0 18l2 2-2 2-2-2 2-2zm0 18l2 2-2 2-2-2 2-2zm0 18l2 2-2 2-2-2 2-2zm0 18l2 2-2 2-2-2 2-2zm0 18l2 2-2 2-2-2 2-2zm-6-99l2 2-2 2-2-2c0-1 0-2 2-2zm0 18l2 2-2 2-2-2c0-1 0-2 2-2zm0 18l2 2-2 2-2-2c0-1 0-2 2-2zm0 18c1 0 2 0 2 2s-1 2-2 2l-2-2c0-1 0-2 2-2zm0 18l2 2-2 2-2-2c0-1 0-2 2-2zm0 18l2 2-2 2-2-2c0-1 0-2 2-2zm-7-81l2 2-2 2-2-2 2-2zm0 18l2 2-2 2-2-2 2-2zm0 18l2 2-2 2-2-2 2-2zm0 18l2 2-2 2-2-2 2-2zm0 18l2 2-2 2-2-2 2-2zm0 18l2 2-2 2-2-2 2-2zm-7-99l2 2-2 2-2-2 2-2zm0 18l2 2-2 2-2-2 2-2zm0 18l2 2-2 2-2-2 2-2zm0 18c1 0 2 0 2 2s-1 2-2 2l-2-2 2-2zm0 18l2 2-2 2-2-2 2-2zm0 18l2 2-2 2-2-2 2-2zm0 18l2 2-2 2-2-2 2-2zm-7-99c2 0 2 1 2 2l-2 2c-2 0-2-1-2-2l2-2zm0 18c2 0 2 1 2 2l-2 2c-2 0-2-1-2-2l2-2zm0 18c2 0 2 1 2 2l-2 2c-2 0-2-1-2-2l2-2zm0 18c2 0 2 1 2 2l-2 2c-2 0-2-1-2-2l2-2zm0 18c2 0 2 1 2 2l-2 2c-2 0-2-1-2-2l2-2zm0 18c2 0 2 1 2 2l-2 2c-2 0-2-1-2-2l2-2zm-6-81l2 2-2 2-2-2 2-2zm0 18l2 2-2 2-2-2 2-2zm0 18c1 0 2 0 2 2s-1 2-2 2l-2-2 2-2zm0 18l2 2-2 2-2-2 2-2zm0 18l2 2-2 2-2-2 2-2zm-7-63l2 2-2 2-2-2 2-2zm-7 9l2 2-2 2-2-2 2-2zm-6-9l2 2-2 2-2-2c0-1 0-2 2-2zm-7 9l2 2-2 2-2-2 2-2zm-7-9l2 2-2 2-2-2 2-2zm-7 9c2 0 2 1 2 2l-2 2c-2 0-2-1-2-2l2-2zm-6-9l2 2-2 2-2-2 2-2zm-7-9l2 2-2 2-2-2 2-2zm-7-9l2 2-2 2-2-2 2-2zm-6-9l2 2-2 2-2-2 2-2zm0 18l2 2-2 2-2-2 2-2zm-7-9l2 2-2 2-2-2 2-2zm-7-27l2 2-2 2-2-2 2-2zm0 18l2 2-2 2-2-2 2-2zm-6-9l2 2-2 2-2-2c0-1 0-2 2-2z" fill="#719961" /> <circle cx="201" cy="153" fill="#719961" r="1" /> <circle cx="134" cy="99" fill="#719961" r="1" /> <circle cx="160" cy="135" fill="#719961" r="1" /> <circle cx="167" cy="126" fill="#719961" r="1" /> <circle cx="120" cy="99" fill="#719961" r="1" /> <circle cx="147" cy="117" fill="#719961" r="1" /> <circle cx="140" cy="108" fill="#719961" r="1" /> <circle cx="181" cy="126" fill="#719961" r="1" /> <circle cx="120" cy="81" fill="#719961" r="1" /> <circle cx="174" cy="135" fill="#719961" r="1" /> <circle cx="127" cy="108" fill="#719961" r="1" /> <circle cx="134" cy="117" fill="#719961" r="1" /> <circle cx="194" cy="126" fill="#719961" r="1" /> <circle cx="187" cy="117" fill="#719961" r="1" /> <circle cx="160" cy="117" fill="#719961" r="1" /> <circle cx="288" cy="180" fill="#719961" r="1" /> <circle cx="207" cy="162" fill="#719961" r="1" /> <circle cx="207" cy="144" fill="#719961" r="1" /> <circle cx="207" cy="108" fill="#719961" r="1" /> <path d="M174 118l1-1h-2l1 1z" fill="#719961" /> <circle cx="140" cy="126" fill="#719961" r="1" /> <circle cx="201" cy="207" fill="#719961" r="1" /> <circle cx="207" cy="126" fill="#719961" r="1" /> <circle cx="228" cy="207" fill="#719961" r="1" /> <path d="M274 197c1 0 1 0 0 0zm-20-97l1-1-2-1v1l1 1z" fill="#719961" /> <circle cx="201" cy="135" fill="#719961" r="1" /> <circle cx="201" cy="117" fill="#719961" r="1" /> <path d="M274 145h1l-1-2-1 1 1 1zm14-20h1-1z" fill="#719961" /> <circle cx="268" cy="135" fill="#719961" r="1" /> <circle cx="207" cy="198" fill="#719961" r="1" /> <circle cx="207" cy="180" fill="#719961" r="1" /> <path d="M342 143l-1 1v1l1-1v-1z" fill="#719961" /> <circle cx="221" cy="90" fill="#719961" r="1" /> <path d="M169 363a113 113 0 0 1 220-53l-13 4a98 98 0 0 0-119-74 99 99 0 0 0-74 119l-14 4z" fill="#fcd19d" /> <path d="M295 205l-3-12-91 22 3 12c-9 6-17 13-24 21l40 36a79 79 0 0 1 89-21l20-49c-11-5-22-8-34-9z" fill="#c54409" /> <path d="M391 317l-16 3 1 8 33-7c-1-5-14-5-18-4z" fill="#4d0800" /> <path d="M377 330l32-7 1-2h-2l-32 7v1l1 1z" fill="#933401" /> <path d="M392 315l-2-2 1-2c0-1-1-3-3-2l2-3-2-2 1-2c0-2-2-3-3-3l-14 4c-1 0-2 2-1 3l1 2v3l3 1c-2 1-3 2-2 4l2 1-1 3c1 1 2 2 3 1l13-3c1 0 2-1 2-3z" fill="#fff" /> <path d="M166 365h16l2 8h-34c0-4 12-8 16-8z" fill="#4d0800" /> <path d="M183 375h-33l-1-1 2-1h32l1 1-1 1z" fill="#933401" /> <path d="M184 355c1-1 0-3-1-3l1-2c1-1-1-3-2-3h-14c-1 0-3 2-2 3l1 2c-1 0-2 2-1 3l1 2c-1 0-2 1-1 3l1 1c-1 1-2 2-1 3l2 2h14l2-2-1-3 1-2c0-1 0-2-2-2l2-2z" fill="#fff" /> <path d="M119 80l-11 7c-2 1-6 1-7-2-4-6-2-13 3-16 5-4 12-3 16 3 2 3 1 6-1 8z" fill="#e8b18c" /> <path d="M238 91v-1l-5-11-34-12 8 30v2a16 16 0 1 0 31-7v-1z" fill="#f9bf96" /> <path d="M232 96c-13 3-27-5-30-18l-7-28 46-23 9 39c4 14-5 27-18 30z" fill="#fcd19d" /> <path d="M247 26s-64 6-59 23l3 12 2 4 1 1c0 3 4 6 8 5l-1-1 2-2 3-2h-3c-2 0-4-1-4-3-2-3 0-7 3-8 3 0 6 1 7 3 3-2 4-5 3-9l-2-4 10-2c12-3 22-7 26-11 3-2 1-6 1-6z" fill="#2e2416" /> <path d="M219 53l-2-1 1-5 5-4 6 1 1 2-2 1-4-1-3 2-1 4c1 1 0 1-1 1zm28-6l-1-1-2-3-3-1-4 2h-2v-2a8 8 0 0 1 11-2c1 1 3 3 3 5l-1 2h-1z" fill="#2e2416" /> <ellipse cx="226" cy="54" fill="#2e2416" rx="1" ry="1" transform="rotate(-13 226 54)" /> <ellipse cx="241" cy="50" fill="#2e2416" rx="1" ry="1" transform="rotate(-13 241 50)" /> <path d="M237 89c-2 0-4-2-4-4l1-1h7v2c0 2-2 3-4 3z" fill="#fff" /> <path d="M193 90h2l4-8c1-2 3-4 5-4l5 1 4 4v3l28-5-1-3c0-2 0-4 2-5l4-3c2 0 4 0 6 2l7 6 3-1c7-1 10-8 8-14l-13-32c-2-4-7-7-12-6l-55 10c-5 1-9 5-9 10l-1 35c0 6 6 11 13 10zm23-13a5 5 0 1 1 4-7c1 3-1 6-4 7zm20-4a5 5 0 1 1-2-11 5 5 0 0 1 2 11zm17-14a5 5 0 1 1 2 10 5 5 0 0 1-2-10zm-11-14a5 5 0 1 1 2 11 5 5 0 0 1-2-11zm-13-13a5 5 0 1 1-4 7c-1-3 1-6 4-7zm-7 17a5 5 0 1 1-4 6c-1-3 1-5 4-6zm-12-13a5 5 0 1 1 2 11 5 5 0 0 1-2-11zm-7 17a5 5 0 1 1 2 10 5 5 0 0 1-2-10zm-9 17a5 5 0 1 1 2 10 5 5 0 0 1-2-10z" fill="#e05b11" /> <path d="M208 80c3 2 4 5 2 8l-10 20c-1 3-5 4-8 3-2-2-3-5-2-8l11-20c1-3 4-4 7-3zm35-6c-2 2-2 6 0 8l18 15c2 2 6 2 8 0 2-3 1-6-1-8l-17-15c-2-3-6-2-8 0z" fill="#878787" /> <path d="M122 76l-19 12 4 7 18-15z" fill="#76ba61" /> <g> <path d="M347 156l8 11c1 2 2 2 4 1v-4l-3-5 8 6h4v-4l-9-8 8 4c1 1 3 0 4-1 0-2 0-3-2-4l-12-6 9 1c2 1 3 0 4-2 0-2-1-3-3-3l-10-2-5-3c-5-3-12-1-15 4h1c-2 3-2 6-1 9l5 10c1 1 3 2 5 1l1-3-1-2z" fill="#f9bf96" /> </g> <g> <path d="M335 151l16-16-7-8-14 19z" fill="#76ba61" /> </g> <path d="M199 17l-3-6-71 50-5-7-5 3 5 8-19 12 4 6 19-13 5 7 5-4-5-7z" fill="#803200" /> <g> <path d="M117 73c2-1 2-3 0-4-3-3-9-4-13-1s-6 7-5 12h1l17-7z" fill="#f9bf96" /> </g> <g> <path d="M293 194zm32 30v-1zm-8 19zm-8-35h1v1h-1v1h-1v-1h-2v-1h1v-1l-12-2-2-10v2h-2v-2h-1v-1h1v-1h1l-39 9h-1v1h-1v-1l-22 6v1h-1v1h-1v-1h-1l-22 5v1h1v1h-1v1h-1v-1h-1v-1h1v-1l-3 1 3 12h1v1h1v1h-1v1h-1v-1h-1v-1c-8 6-15 12-22 20h1v1l6 5h1v1h1v1l6 6v-1h1v1h1v1l6 6v-1h1v1h1v1h-1l7 6v-1h1v1h1v1h-1l6 6h1v-2h1v2h1l6-6h-1v-1h1v-1h2l7-5h-2v-1h2v-1h1v1h1a80 80 0 0 1 69-7h1v-1h1v1l8-18h-1v-1h-1v-1h1v-1h1v1h1l7-18h-1v-1h-1v-2h1v-1h1v1h1l3-7-20-7v1zm-120 35h-1v1h-1v-1h-1v-1h1v-1h1v1h1v1zm8 7h-1v1h-1v-1h-1v-2h1v-1h1v2h1v1zm0-14h-1v1h-1v-1h-1v-1h1v-1h1v1h1v1zm8 20h-1v1h-1v-1h-1v-1h1v-1h1v1h1v1zm0-13h-1v1h-1v-1h-1v-1h1v-1h1v1h1v1zm8 20h-1v1h-1v-1h-1v-1h1v-1h1v1h1v1zm0-13h-1v1h-1v-1h-1v-2h1v-1h1v2h1v1zm0-14h-1v1h-1v-1h-1v-1h1v-1h1v1h1v1zm0-13h-1v1h-1v-2h-1v-1h1v-1h1v1h1v2zm8 47h-1v1h-1v-1h-1v-1h1v-1h1v1h1v1zm0-14h-1v1h-1v-1h-1v-1h1v-1h1v1h1v1zm0-13h-1v1h-1v-1h-1v-1h1v-1h1v1h1v1zm0-14h-1v1h-1v-1h-1v-1h1v-1h1v1h1v1zm0-13h-1v1h-1v-1h-1v-1h1v-2h1v2h1v1zm8 47h-1v1h-1v-1h-1v-1h1v-1h1v1h1v1zm0-13h-1v1h-1v-1h-1v-2h1v-1h1v2h1v1zm0-14h-1v1h-1v-1h-1v-1h1v-1h1v1h1v1zm0-13h-1v1h-1v-2h-1v-1h1v-1h1v1h1v2zm8 33h-1v1h-1v-1h-1v-1h1v-1h1v1h1v1zm0-13h-1v1h-1v-1h-1v-1h1v-1h1v1h1v1zm0-14h-1v1h-1v-1h-1v-1h1v-1h1v1h1v1zm0-13h-1v1h-1v-1h-1v-1h1v-2h1v2h1v1zm8 47h-1v1h-1v-1h-1v-1h1v-1h1v1h1v1zm0-13h-1v1h-1v-1h-1v-2h1v-1h1v2h1v1zm0-14h-1v1h-1v-1h-1v-1h1v-1h1v1h1v1zm0-13h-1v1h-1v-2h-1v-1h1v-1h1v1h1v2zm0-14h-1v1h-1v-1h-1v-1h1v-1h1v1h1v1zm8 47h-1v1h-1v-1h-1v-1h1v-1h1v1h1v1zm0-13h-1v1h-1v-1h-1v-1h1v-1h1v1h1v1zm0-14h-1v1h-1v-1h-1v-1h1v-1h1v1h1v1zm0-13h-1v1h-1v-1h-1v-1h1v-2h1v2h1v1zm9 34h-2v1h-1v-1h-1v-2h1v-1h1v2h1v1zm0-14h-2v1h-1v-1h-1v-1h1v-1h1v1h1v1zm0-13h-2v1h-1v-2h-1v-1h1v-1h1v1h1v2zm0-14h-2v1h-1v-1h-1v-1h1v-1h1v1h1v1zm8 47h-2v1h-1v-1h-1v-1h1v-1h1v1h1v1zm0-13h-2v1h-1v-1h-1v-1h1v-1h1v1h1v1zm0-14h-2v1h-1v-1h-1v-1h1v-1h1v1h1v1zm0-13h-2v1h-1v-1h-1v-1h1v-2h1v2h1v1zm0-14h-2v1h-1v-1h-1v-1h1v-1h1v1h1v1zm8 48h-2v1h-1v-1h-1v-2h1v-1h1v2h1v1zm0-14h-2v1h-1v-1h-1v-1h1v-1h1v1h1v1zm0-13h-2v1h-1v-2h-1v-1h1v-1h1v1h1v2zm0-14h-2v1h-1v-1h-1v-1h1v-1h1v1h1v1zm8 47h-1v1h-2v-1h-1v-1h1v-1h1v1h2v1zm0-13h-1v1h-2v-1h-1v-1h1v-1h1v1h2v1zm0-14h-1v1h-2v-1h-1v-1h1v-1h1v1h2v1zm0-13h-1v1h-2v-1h-1v-1h1v-2h1v2h2v1zm0-14h-1v1h-2v-1h-1v-1h1v-1h1v1h2v1zm8 48h-1v1h-2v-1h-1v-2h1v-1h1v2h2v1zm0-14h-1v1h-2v-1h-1v-1h1v-1h1v1h2v1zm0-13h-1v1h-2v-2h-1v-1h1v-1h1v1h2v2zm0-14h-1v1h-2v-1h-1v-1h1v-1h1v1h2v1zm8 47h-1v1h-2v-1h-1v-1h1v-1h1v1h2v1zm0-13h-1v1h-2v-1h-1v-1h1v-1h1v1h2v1zm0-14h-1v1h-2v-1h-1v-1h1v-1h1v1h2v1zm0-13h-1v1h-2v-1h-1v-1h1v-2h1v2h2v1zm8 34h-1v1h-2v-1h-1v-2h1v-1h2v2h1v1zm0-14h-1v1h-2v-1h-1v-1h1v-1h2v1h1v1zm0-13h-1v1h-2v-2h-1v-1h1v-1h2v1h1v2zm5-8h1v-1h1v1h1v1h-1v1h-1v-1h-1v-1zm0 13h1v-1h1v1h1v1h-1v1h-1v-1h-1v-1zm-112 0h-1 1z" fill="#933401" /> </g> <g> <path d="M180 248a7420 7420 0 0 0 40 37l-1 2h-1l-40-37 1-2h1z" fill="#940" /> </g> <g> <path d="M309 264l20-50v-1l3 1v1l-20 50h-1l-2-1s-1 0 0 0z" fill="#940" /> </g></svg>