<svg width="21" height="22" viewBox="0 0 21 22" fill="none" xmlns="http://www.w3.org/2000/svg">
<path d="M19.035 4.257C19.945 5.349 20.399 6.623 20.399 8.079C20.399 13.356 17.397 14.903 14.576 15.358C14.94 15.995 15.031 16.723 15.031 17.451V21.181C15.031 21.636 14.758 21.909 14.394 21.909C14.298 21.9103 14.2028 21.8924 14.1138 21.8563C14.0249 21.8202 13.9441 21.7666 13.8762 21.6988C13.8084 21.6309 13.7548 21.5501 13.7187 21.4612C13.6826 21.3722 13.6647 21.277 13.666 21.181V17.451C13.7139 17.0696 13.6732 16.6824 13.5469 16.3193C13.4206 15.9563 13.2122 15.6273 12.938 15.358L13.393 14.175C16.214 13.811 19.126 12.901 19.126 7.988C19.126 6.805 18.671 5.713 17.852 4.803L17.67 4.076C18.0161 3.20405 18.0479 2.23885 17.76 1.346C17.306 1.436 16.396 1.619 14.85 2.711L14.303 2.801C12.1538 2.25527 9.90223 2.25527 7.753 2.801L7.206 2.711C5.57 1.71 4.66 1.437 4.204 1.437C3.931 2.347 3.931 3.347 4.294 4.167L4.113 4.894C3.203 5.804 2.748 6.987 2.748 8.079C2.748 12.901 5.478 13.902 8.48 14.266L8.844 15.449C8.298 15.995 8.025 16.723 8.116 17.451V21.272C8.11735 21.368 8.09944 21.4632 8.06333 21.5522C8.02722 21.6411 7.97364 21.7219 7.90577 21.7898C7.8379 21.8576 7.75711 21.9112 7.66818 21.9473C7.57925 21.9834 7.48397 22.0013 7.388 22C7.29202 22.0013 7.19675 21.9834 7.10782 21.9473C7.01889 21.9112 6.9381 21.8576 6.87023 21.7898C6.80236 21.7219 6.74878 21.6411 6.71267 21.5522C6.67656 21.4632 6.65865 21.368 6.66 21.272V19.18C3.658 19.817 2.475 18.27 1.565 17.088C1.11 16.542 0.746 16.087 0.291 15.996C0.201 15.905 -0.0730002 15.541 0.0179998 15.177C0.109 14.813 0.473 14.54 0.838 14.722C1.748 14.904 2.293 15.632 2.838 16.269C3.658 17.361 4.477 18.361 6.933 17.816V17.452C6.843 16.724 7.024 15.996 7.388 15.359C4.658 14.813 1.474 13.266 1.474 8.08C1.474 6.624 1.929 5.35 2.839 4.258C2.566 2.985 2.657 1.62 3.112 0.528001L3.567 0.164001C3.749 0.0730006 5.023 -0.199999 7.66 1.437C9.84035 0.891074 12.1217 0.891074 14.302 1.437C16.851 -0.291999 18.216 -0.0199994 18.398 0.0720006L18.853 0.436001C19.308 1.71 19.399 2.984 19.035 4.257V4.257Z" fill="#F8F8F8"/>
</svg>
