<svg width="50" height="50" viewBox="0 0 50 50" fill="none" xmlns="http://www.w3.org/2000/svg">
<path d="M14.5833 21.0938V28.9062C14.5833 30.2007 13.534 31.25 12.2396 31.25H2.34375C1.04932 31.25 0 30.2007 0 28.9062V21.0938C0 19.7993 1.04932 18.75 2.34375 18.75H12.2396C13.534 18.75 14.5833 19.7993 14.5833 21.0938ZM0 36.7188V44.5312C0 45.8257 1.04932 46.875 2.34375 46.875H12.2396C13.534 46.875 14.5833 45.8257 14.5833 44.5312V36.7188C14.5833 35.4243 13.534 34.375 12.2396 34.375H2.34375C1.04932 34.375 0 35.4243 0 36.7188ZM12.2396 3.125H2.34375C1.04932 3.125 0 4.17432 0 5.46875V13.2812C0 14.5757 1.04932 15.625 2.34375 15.625H12.2396C13.534 15.625 14.5833 14.5757 14.5833 13.2812V5.46875C14.5833 4.17432 13.534 3.125 12.2396 3.125ZM20.0521 46.875H47.6562C48.9507 46.875 50 45.8257 50 44.5312V36.7188C50 35.4243 48.9507 34.375 47.6562 34.375H20.0521C18.7576 34.375 17.7083 35.4243 17.7083 36.7188V44.5312C17.7083 45.8257 18.7576 46.875 20.0521 46.875ZM17.7083 5.46875V13.2812C17.7083 14.5757 18.7576 15.625 20.0521 15.625H47.6562C48.9507 15.625 50 14.5757 50 13.2812V5.46875C50 4.17432 48.9507 3.125 47.6562 3.125H20.0521C18.7576 3.125 17.7083 4.17432 17.7083 5.46875ZM20.0521 31.25H47.6562C48.9507 31.25 50 30.2007 50 28.9062V21.0938C50 19.7993 48.9507 18.75 47.6562 18.75H20.0521C18.7576 18.75 17.7083 19.7993 17.7083 21.0938V28.9062C17.7083 30.2007 18.7576 31.25 20.0521 31.25Z" fill="black"/>
</svg>
