<svg width="553" height="206" viewBox="0 0 553 206" fill="none" xmlns="http://www.w3.org/2000/svg">
<g clip-path="url(#clip0_2_15)">
<path d="M361.9 84.3C365.1 79.6 366.7 74 366.7 68.4L361.9 84.3ZM361.9 84.3C358.6 89.2 354 93 348.6 95.3L361.9 84.3ZM314.019 77.0245L314.025 77.0328L314.032 77.041C317.255 81.0416 321.71 83 327.4 83C331.472 83 334.977 82.0699 337.455 79.8582C339.8 78.0724 341.2 75.249 341.2 72.3C341.2 69.4608 339.907 66.7399 337.667 64.9524C336.455 63.8756 334.582 62.907 332.198 62.0193C329.761 61.1116 326.663 60.2441 322.923 59.4352C310.892 56.7502 302.508 53.2188 297.705 48.8862L297.686 48.8694L297.667 48.8532C292.908 44.8405 290.213 38.9751 290.399 32.7448L290.4 32.7224V32.7C290.4 28.3994 291.71 24.0975 294.135 20.5519C296.98 16.4758 300.848 13.2799 305.442 11.4985L305.47 11.4878L305.497 11.476C310.532 9.29118 317.701 8.10001 326.9 8.10001C338.153 8.10001 346.489 10.1794 352.126 14.2192L352.133 14.2241L352.14 14.2289C357.368 17.8888 360.728 23.729 361.995 31.8959L338.915 33.2274C338.106 29.6518 336.645 26.8173 334.255 24.8436C331.609 22.6577 328.233 21.7 324.1 21.7C320.713 21.7 317.925 22.4364 315.958 24.0325C314.167 25.4677 312.886 27.6871 313 30.2384C313.013 32.2341 314.06 34.0181 315.54 35.1548C316.418 35.9408 317.728 36.5814 319.298 37.1386C320.937 37.7201 323.009 38.261 325.492 38.7681C337.57 41.3636 346.005 43.9312 351.119 46.5366C356.243 49.1469 359.792 52.2737 361.908 55.862L361.914 55.8717C364.165 59.6244 365.294 63.9449 365.2 68.3681L365.2 68.3841V68.4C365.2 73.7192 363.68 79.021 360.66 83.4558L360.656 83.4621C357.517 88.1227 353.145 91.7339 348.012 93.92L348.005 93.9231L347.998 93.9263C342.541 96.3196 335.56 97.6 327.1 97.6C311.997 97.6 302.021 94.6996 296.561 89.2393C291.249 83.9282 287.971 77.3597 287.042 69.397L310.43 67.8853C311.087 71.6623 312.203 74.7038 314.019 77.0245ZM65.0956 59.6445C67.3983 60.2892 69.7345 61.4001 71.8167 62.716C73.3647 64.003 74.6656 65.4858 75.9085 67.1112L75.9404 67.153L75.9752 67.1924C77.3896 68.7954 78.625 70.5969 79.6766 72.5064L91.9351 96.2H63.8962L49.5209 69.4891L49.5183 69.4844C47.6257 65.998 45.8893 63.4121 44.087 62.0904L44.0737 62.0806L44.0602 62.0712C41.7913 60.4829 39.0866 59.7 36.4 59.7H34H32.5V61.2V96H7.8V9.70001H52.4C60.8573 9.70001 67.2607 10.4014 71.5257 11.823L71.5354 11.8263L71.5452 11.8294C75.6245 13.1274 79.2431 15.8188 81.6519 19.4321L81.6564 19.4387C84.3752 23.47 85.6946 28.1641 85.6003 33.0712L85.5995 33.1111L85.6009 33.1511C85.8826 41.4139 81.6563 49.2818 74.4582 53.3963C71.6042 55.0132 68.4666 56.1533 65.2393 56.7228L65.0956 59.6445ZM32.5 44.4V45.9H34H45.7H45.7599L45.8196 45.8952C48.3847 45.69 50.8486 45.2809 53.3081 44.6691C55.4778 44.2909 57.3929 43.0791 58.7047 41.2938C61.8518 37.0911 61.3898 31.1354 57.527 27.5067L57.4945 27.4762L57.4603 27.4477C56.3083 26.4877 54.7284 25.8395 52.8788 25.424C51.0137 25.005 48.7718 24.8 46.2 24.8H34H32.5V26.3V44.4ZM12.2047 155.186L12.186 155.169L12.1669 155.153C7.40762 151.141 4.71335 145.275 4.89933 139.045L4.9 139.022V139C4.9 134.7 6.21003 130.398 8.63415 126.853C11.4798 122.776 15.348 119.58 19.9423 117.799L19.9699 117.788L19.9971 117.776C25.0318 115.591 32.2006 114.4 41.4 114.4C52.653 114.4 60.9892 116.479 66.6262 120.519C71.8644 124.273 75.1386 130.037 76.3957 138.196L53.315 139.527C52.5078 135.958 51.0498 133.127 48.6679 131.154C46.1027 128.945 42.6038 127.998 38.4809 128.1C35.1279 128.103 32.3315 128.829 30.3549 130.534C28.4172 132.008 27.2875 134.245 27.4001 136.738C27.4133 138.734 28.4596 140.518 29.9405 141.655C30.8182 142.441 32.1281 143.081 33.6984 143.639C35.3372 144.22 37.4091 144.761 39.8932 145.268C51.9705 147.864 60.405 150.431 65.5191 153.037C70.6431 155.647 74.1918 158.774 76.3079 162.362L76.3138 162.372C78.5667 166.127 79.7 170.458 79.7 174.8C79.7 180.094 78.093 185.306 75.1518 189.768C72.0134 194.426 67.6425 198.035 62.5122 200.22L62.5048 200.223L62.4975 200.226C57.0408 202.62 50.0602 203.9 41.6 203.9C26.501 203.9 16.5269 201.001 11.0655 195.544C5.76534 190.152 2.65016 183.581 1.65684 175.596L25.0296 174.085C25.6866 177.861 26.802 180.902 28.6174 183.223C31.7396 187.236 36.3037 189.3 42 189.3C46.0815 189.3 49.5932 188.366 52.0724 186.143C54.3718 184.288 55.8 181.584 55.8 178.6C55.8 175.761 54.5074 173.04 52.267 171.252C51.0542 170.175 49.1811 169.206 46.7835 168.318C44.3324 167.411 41.2094 166.543 37.4187 165.734C25.3899 163.049 17.0076 159.518 12.2047 155.186Z" fill="black" stroke="white" stroke-width="3"/>
<path d="M93.7344 199.282L93.7232 199.277C87.9658 196.677 82.9377 191.99 78.5893 185.129C74.351 178.442 72.2 169.748 72.2 158.9C72.2 144.443 76.0036 133.625 83.4142 126.214C90.8441 118.784 101.379 114.9 115.4 114.9C126.439 114.9 134.79 117.147 140.847 121.334C146.352 125.296 150.677 131.216 153.746 139.239L133.34 143.755C132.735 142.096 131.946 140.464 130.964 138.991L130.946 138.964L130.927 138.938C129.232 136.564 127.084 134.762 124.525 133.427C121.88 132.047 118.947 131.5 116.1 131.5C109.171 131.5 103.723 134.303 100.032 139.997C97.2036 144.194 95.9 150.576 95.9 158.7C95.9 168.649 97.3764 176.08 100.846 180.36C104.292 184.61 109.111 186.6 115.1 186.6C120.778 186.6 125.379 184.983 128.564 181.563L128.586 181.539L128.608 181.514C131.222 178.513 133.17 174.578 134.452 169.727L154.819 175.871C153.467 181.017 151.071 185.924 147.893 190.31C144.707 194.52 140.486 197.807 135.685 199.974C130.814 202.127 124.512 203.3 116.7 203.3C107.166 203.3 99.4808 201.92 93.7344 199.282ZM191.5 201.8V116.4H215.1V145.7V147.7H217.1H247.3H249.3V145.7V116.4H273.1V201.8H249.3V167.6V165.6H247.3H217.1H215.1V167.6V201.8H191.5Z" fill="black" stroke="white" stroke-width="4"/>
<path d="M356.927 183.174L356.922 183.184C353.707 189.425 348.692 194.538 342.531 197.95C336.196 201.448 328.248 203.3 318.6 203.3C308.702 203.3 300.729 201.731 294.484 198.706C288.039 195.481 282.738 190.459 279.238 184.311L279.232 184.3L279.226 184.289C275.347 177.666 273.3 169.337 273.3 159.1C273.3 144.882 277.283 134.046 284.914 126.414C292.547 118.782 303.384 114.8 317.5 114.8C332.038 114.8 342.871 118.694 350.495 126.223C358.116 133.75 362 144.379 362 158.4C362 168.684 360.236 176.841 356.927 183.174ZM302.357 179.973L302.365 179.982L302.373 179.992C306.103 184.399 311.293 186.6 317.6 186.6C323.972 186.6 329.178 184.523 332.927 180.092C336.717 175.613 338.3 168.075 338.3 158C338.3 149.42 336.58 142.62 332.699 138.276C328.871 133.891 323.702 131.809 317.439 131.8C311.721 131.588 306.263 134.061 302.492 138.386C298.609 142.84 296.9 149.949 296.9 159.2C296.9 168.368 298.616 175.438 302.357 179.973ZM477.927 183.174L477.922 183.184C474.707 189.424 469.693 194.537 463.532 197.95C457.197 201.448 449.249 203.3 439.6 203.3C429.702 203.3 421.729 201.731 415.484 198.706C409.039 195.481 403.738 190.459 400.238 184.311L400.232 184.3L400.226 184.289C396.347 177.666 394.3 169.337 394.3 159.1C394.3 144.882 398.283 134.046 405.914 126.414C413.547 118.782 424.384 114.8 438.5 114.8C453.046 114.8 463.97 118.698 471.486 126.214C479.023 133.751 483 144.391 483 158.4C483 168.684 481.236 176.841 477.927 183.174ZM423.357 179.973L423.365 179.982L423.373 179.992C427.103 184.399 432.293 186.6 438.6 186.6C444.972 186.6 450.178 184.523 453.927 180.092C457.717 175.613 459.3 168.075 459.3 158C459.3 149.42 457.58 142.62 453.699 138.276C449.871 133.891 444.702 131.809 438.439 131.8C432.742 131.589 427.171 134.044 423.482 138.398C419.606 142.852 417.9 149.957 417.9 159.2C417.9 168.368 419.616 175.438 423.357 179.973Z" fill="black" stroke="white" stroke-width="4"/>
<path d="M509.7 183.8H550.8V201.8H484V116.4H507.7V181.8V183.8H509.7Z" fill="black" stroke="white" stroke-width="4"/>
<path d="M451.679 109.241C479.466 88.3007 488.035 52.804 470.817 29.9567C453.6 7.10934 417.117 5.56313 389.329 26.5031C361.542 47.4431 352.973 82.9398 370.191 105.787C387.408 128.634 423.891 130.181 451.679 109.241Z" fill="white"/>
<path d="M451.679 109.241C479.466 88.3007 488.035 52.804 470.817 29.9567C453.6 7.10932 417.117 5.56311 389.329 26.5031C361.542 47.4431 352.973 82.9398 370.191 105.787C387.408 128.634 423.891 130.181 451.679 109.241Z" fill="white"/>
<path d="M451.679 109.241C479.466 88.3007 488.035 52.804 470.817 29.9567C453.6 7.10932 417.117 5.56311 389.329 26.5031C361.542 47.4431 352.973 82.9398 370.191 105.787C387.408 128.634 423.891 130.181 451.679 109.241Z" stroke="black" stroke-width="4" stroke-miterlimit="10"/>
<path d="M392.4 61.3L402.4 54.3L414.7 71.8C416.8 74.6 418.4 77.6 419.6 80.9C420.3 83.4 420.1 86.1 419.1 88.5C417.8 91.5 415.7 94 412.9 95.8C409.6 98.1 406.8 99.4 404.4 99.8C402.1 100.2 399.7 99.8 397.5 98.8C395.1 97.6 393 95.9 391.4 93.7L400 85.7C400.7 86.8 401.6 87.8 402.6 88.6C403.3 89.1 404.1 89.4 405 89.4C405.7 89.4 406.4 89.1 406.9 88.7C407.9 88.1 408.6 86.9 408.5 85.7C408.2 84 407.5 82.3 406.4 81L392.4 61.3V61.3ZM422.4 72.4L431.5 65.2C432.5 66.4 433.8 67.3 435.2 67.8C437.2 68.4 439.3 68 441 66.7C442.2 65.9 443.2 64.8 443.6 63.4C444.2 61.6 443.2 59.6 441.4 59C441.1 58.9 440.8 58.8 440.5 58.8C439.3 58.7 437.2 59.2 434.1 60.5C429 62.6 425 63.4 422 63.1C419.1 62.8 416.4 61.3 414.8 58.8C413.6 57.1 413 55.1 412.9 53.1C412.9 50.8 413.5 48.5 414.8 46.6C416.7 43.9 419 41.6 421.8 39.8C426 36.9 429.7 35.5 432.9 35.5C436.1 35.5 439.1 37 441.9 40.1L432.9 47.2C431.1 44.9 427.7 44.4 425.4 46.2L425.1 46.5C424.1 47.1 423.4 48 423 49.1C422.7 49.9 422.9 50.8 423.4 51.5C423.8 52 424.4 52.4 425.1 52.4C425.9 52.5 427.3 52.1 429.3 51.2C434.3 49.1 438.1 47.9 440.7 47.5C442.9 47.1 445.2 47.3 447.3 48.2C449.2 49 450.8 50.4 451.9 52.1C453.3 54.1 454.1 56.5 454.2 59C454.3 61.6 453.6 64.1 452.2 66.3C450.4 69 448.1 71.3 445.4 73.1C439.9 76.9 435.4 78.5 431.8 77.9C427.9 77.3 424.7 75.3 422.4 72.4V72.4Z" fill="black"/>
</g>
<defs>
<clipPath id="clip0_2_15">
<rect width="552.8" height="205.3" fill="white"/>
</clipPath>
</defs>
</svg>
