<svg width="50" height="50" viewBox="0 0 50 50" fill="none" xmlns="http://www.w3.org/2000/svg">
<g clip-path="url(#clip0_1_2)">
<path d="M7.8125 35.9375H1.5625C1.1481 35.9375 0.750671 36.1021 0.457646 36.3951C0.16462 36.6882 0 37.0856 0 37.5L0 43.75C0 44.1644 0.16462 44.5618 0.457646 44.8549C0.750671 45.1479 1.1481 45.3125 1.5625 45.3125H7.8125C8.2269 45.3125 8.62433 45.1479 8.91735 44.8549C9.21038 44.5618 9.375 44.1644 9.375 43.75V37.5C9.375 37.0856 9.21038 36.6882 8.91735 36.3951C8.62433 36.1021 8.2269 35.9375 7.8125 35.9375ZM7.8125 4.6875H1.5625C1.1481 4.6875 0.750671 4.85212 0.457646 5.14515C0.16462 5.43817 0 5.8356 0 6.25L0 12.5C0 12.9144 0.16462 13.3118 0.457646 13.6049C0.750671 13.8979 1.1481 14.0625 1.5625 14.0625H7.8125C8.2269 14.0625 8.62433 13.8979 8.91735 13.6049C9.21038 13.3118 9.375 12.9144 9.375 12.5V6.25C9.375 5.8356 9.21038 5.43817 8.91735 5.14515C8.62433 4.85212 8.2269 4.6875 7.8125 4.6875V4.6875ZM7.8125 20.3125H1.5625C1.1481 20.3125 0.750671 20.4771 0.457646 20.7701C0.16462 21.0632 0 21.4606 0 21.875L0 28.125C0 28.5394 0.16462 28.9368 0.457646 29.2299C0.750671 29.5229 1.1481 29.6875 1.5625 29.6875H7.8125C8.2269 29.6875 8.62433 29.5229 8.91735 29.2299C9.21038 28.9368 9.375 28.5394 9.375 28.125V21.875C9.375 21.4606 9.21038 21.0632 8.91735 20.7701C8.62433 20.4771 8.2269 20.3125 7.8125 20.3125ZM48.4375 37.5H17.1875C16.7731 37.5 16.3757 37.6646 16.0826 37.9576C15.7896 38.2507 15.625 38.6481 15.625 39.0625V42.1875C15.625 42.6019 15.7896 42.9993 16.0826 43.2924C16.3757 43.5854 16.7731 43.75 17.1875 43.75H48.4375C48.8519 43.75 49.2493 43.5854 49.5424 43.2924C49.8354 42.9993 50 42.6019 50 42.1875V39.0625C50 38.6481 49.8354 38.2507 49.5424 37.9576C49.2493 37.6646 48.8519 37.5 48.4375 37.5ZM48.4375 6.25H17.1875C16.7731 6.25 16.3757 6.41462 16.0826 6.70765C15.7896 7.00067 15.625 7.3981 15.625 7.8125V10.9375C15.625 11.3519 15.7896 11.7493 16.0826 12.0424C16.3757 12.3354 16.7731 12.5 17.1875 12.5H48.4375C48.8519 12.5 49.2493 12.3354 49.5424 12.0424C49.8354 11.7493 50 11.3519 50 10.9375V7.8125C50 7.3981 49.8354 7.00067 49.5424 6.70765C49.2493 6.41462 48.8519 6.25 48.4375 6.25V6.25ZM48.4375 21.875H17.1875C16.7731 21.875 16.3757 22.0396 16.0826 22.3326C15.7896 22.6257 15.625 23.0231 15.625 23.4375V26.5625C15.625 26.9769 15.7896 27.3743 16.0826 27.6674C16.3757 27.9604 16.7731 28.125 17.1875 28.125H48.4375C48.8519 28.125 49.2493 27.9604 49.5424 27.6674C49.8354 27.3743 50 26.9769 50 26.5625V23.4375C50 23.0231 49.8354 22.6257 49.5424 22.3326C49.2493 22.0396 48.8519 21.875 48.4375 21.875Z" fill="black"/>
</g>
<defs>
<clipPath id="clip0_1_2">
<rect width="50" height="50" fill="white"/>
</clipPath>
</defs>
</svg>
